<svg xmlns="http://www.w3.org/2000/svg" xmlns:xlink="http://www.w3.org/1999/xlink" width="600" zoomAndPan="magnify" viewBox="0 0 450 299.999988" height="400" preserveAspectRatio="xMidYMid meet" version="1.0"><defs><g/></defs><path fill="#d7a86e" d="M 158.339844 163.09375 C 158.199219 164.347656 156.0625 176.71875 124.949219 177.898438 C 92.167969 179.140625 78.648438 182.324219 70.421875 197.617188 C 63.238281 211.007812 72.570312 225.726562 85.855469 230.648438 L 85.855469 230.660156 C 67.996094 224.4375 55 212.0625 48.050781 200.570312 C 38.980469 185.566406 39.765625 176.371094 40.734375 170.90625 L 40.757812 170.90625 C 41.542969 167.5 52.722656 161.914062 65.921875 162.210938 L 65.921875 162.183594 C 78.273438 163.054688 93.671875 163.691406 111.429688 163.453125 C 131.894531 163.191406 147.214844 163.226562 158.339844 163.09375 Z M 158.339844 163.09375 " fill-opacity="1" fill-rule="nonzero"/><path fill="#44312b" d="M 178.855469 162.210938 C 179.214844 163.9375 179.414062 166.085938 179.402344 168.558594 C 179.351562 179.898438 174.851562 197.960938 160.835938 212.371094 C 143.738281 229.914062 110.035156 235.203125 88.601562 228.671875 C 67.164062 222.160156 68.257812 199.019531 83.46875 189.699219 C 98.703125 180.386719 121.839844 185.515625 141.574219 183.03125 C 160.984375 180.582031 163.394531 163.535156 163.46875 163.003906 C 170.613281 162.855469 175.609375 162.558594 178.804688 161.925781 Z M 178.855469 162.210938 " fill-opacity="1" fill-rule="nonzero"/><path fill="#44312b" d="M 200.277344 181.464844 C 206.191406 190.632812 198.886719 206.933594 183.664062 209.578125 C 183.664062 209.578125 196.089844 203.054688 196.550781 191.875 C 197.023438 180.695312 192.820312 182.867188 189.257812 182.867188 C 185.6875 182.867188 184.125 182.246094 184.746094 178.832031 C 185.367188 175.414062 194.386719 172.308594 200.277344 181.464844 Z M 200.277344 181.464844 " fill-opacity="1" fill-rule="nonzero"/><path fill="#44312b" d="M 196.089844 232.25 C 199.046875 238.75 169.683594 257.316406 106.691406 250.3125 L 107.015625 247.167969 C 156.808594 252.632812 186.148438 238.175781 186.148438 233.492188 C 186.148438 228.210938 164.402344 230.695312 164.402344 226.039062 C 164.402344 221.378906 192.984375 225.417969 196.089844 232.25 Z M 196.089844 232.25 " fill-opacity="1" fill-rule="nonzero"/><path fill="#44312b" d="M 163.46875 163.003906 C 161.867188 163.042969 160.164062 163.066406 158.339844 163.09375 C 147.214844 163.226562 131.894531 163.191406 111.429688 163.453125 C 93.671875 163.691406 78.273438 163.054688 65.921875 162.183594 C 44.996094 160.695312 32.84375 158.480469 32.84375 158.480469 C 64.367188 158.957031 143.277344 157.402344 161.753906 156.621094 C 180.246094 155.851562 149.800781 148.085938 126.039062 145.140625 C 102.269531 142.183594 78.039062 145.289062 78.039062 145.289062 C 78.039062 145.289062 104.917969 136.59375 141.414062 141.5625 C 177.910156 146.53125 186.460938 156.78125 182.730469 160.347656 C 182.023438 161.03125 180.742188 161.539062 178.804688 161.925781 C 175.609375 162.558594 170.613281 162.855469 163.46875 163.003906 Z M 163.46875 163.003906 " fill-opacity="1" fill-rule="nonzero"/><path fill="#44312b" d="M 181.800781 168.582031 C 181.800781 168.582031 187.765625 188.113281 168.292969 214.382812 C 152.289062 235.976562 103.820312 250.261719 69.339844 229.453125 C 34.855469 208.648438 28.792969 180.074219 29.414062 169.664062 C 30.03125 159.265625 40.921875 162.0625 41.378906 166.097656 C 41.503906 167.230469 41.105469 168.78125 40.734375 170.90625 C 39.765625 176.371094 38.980469 185.566406 48.050781 200.570312 C 55 212.0625 67.996094 224.4375 85.855469 230.660156 C 100.355469 235.726562 118.050781 236.734375 138.304688 229.914062 C 183.5 214.707031 181.800781 168.582031 181.800781 168.582031 Z M 181.800781 168.582031 " fill-opacity="1" fill-rule="nonzero"/><path fill="#44312b" d="M 107.015625 247.167969 L 106.691406 250.3125 C 103.4375 249.949219 100.105469 249.519531 96.675781 249.019531 C 26.777344 238.769531 0.0585938 203.988281 1.304688 196.222656 C 1.304688 196.222656 25.226562 231.628906 87.046875 244.050781 C 94.019531 245.453125 100.679688 246.472656 107.015625 247.167969 Z M 107.015625 247.167969 " fill-opacity="1" fill-rule="nonzero"/><path fill="#44312b" d="M 117.648438 154.296875 C 117.648438 154.296875 105.222656 152.742188 102.582031 141.097656 C 99.941406 129.449219 112.523438 117.027344 114.851562 100.257812 C 117.179688 83.488281 103.046875 68.578125 87.355469 66.871094 C 69.808594 64.960938 67.628906 67.957031 66.386719 71.066406 C 65.144531 74.171875 67.941406 75.414062 65.921875 78.363281 C 63.902344 81.3125 55.824219 81.625 55.667969 75.878906 C 55.515625 70.132812 61.328125 60.355469 83.320312 62.523438 C 105.375 64.699219 118.359375 78.355469 119.355469 91.40625 C 120.597656 107.710938 105.5 126.339844 105.222656 136.441406 C 104.910156 147.621094 117.648438 154.296875 117.648438 154.296875 Z M 117.648438 154.296875 " fill-opacity="1" fill-rule="nonzero"/><path fill="#d7a86e" d="M 116.25 138.144531 C 116.25 138.144531 112.210938 132.402344 117.957031 122.308594 C 123.703125 112.214844 137.21875 99.636719 128.519531 86.125 C 119.820312 72.617188 108.636719 70.445312 109.261719 60.039062 C 109.878906 49.636719 120.753906 42.800781 126.5 47.769531 C 132.25 52.738281 122.929688 60.039062 117.648438 53.828125 C 117.648438 53.828125 111.589844 59.417969 116.558594 67.027344 C 121.53125 74.636719 134.535156 82.703125 135.355469 94.667969 C 136.441406 110.507812 115.628906 121.6875 116.25 138.144531 Z M 116.25 138.144531 " fill-opacity="1" fill-rule="nonzero"/><g fill="#44312b" fill-opacity="1"><g transform="translate(221.060324, 138.290881)"><g><path d="M 46.71875 -71.265625 C 55.351562 -69.910156 60.082031 -67.472656 60.90625 -63.953125 C 61.738281 -60.429688 60.769531 -57.976562 58 -56.59375 C 55.226562 -55.21875 52.207031 -56.003906 48.9375 -58.953125 C 45.675781 -61.898438 41.101562 -62.128906 35.21875 -59.640625 C 29.34375 -57.160156 24.726562 -52.160156 21.375 -44.640625 C 18.019531 -37.117188 16.328125 -30.9375 16.296875 -26.09375 C 16.535156 -22.414062 17.46875 -19.316406 19.09375 -16.796875 C 21.945312 -14.023438 26.382812 -12.660156 32.40625 -12.703125 C 38.425781 -12.742188 44.8125 -15.238281 51.5625 -20.1875 C 58.320312 -25.144531 61.703125 -27.273438 61.703125 -26.578125 C 56.859375 -16.648438 51.578125 -10.335938 45.859375 -7.640625 C 40.140625 -4.953125 35.398438 -3.359375 31.640625 -2.859375 C 27.878906 -2.367188 24.222656 -2.347656 20.671875 -2.796875 C 12.941406 -4.753906 8.035156 -7.988281 5.953125 -12.5 C 2.523438 -18.125 1.128906 -25.046875 1.765625 -33.265625 L 2.703125 -38.09375 C 5.265625 -45.164062 9.882812 -52.429688 16.5625 -59.890625 C 16.957031 -59.890625 18.644531 -61.140625 21.625 -63.640625 C 25.53125 -66.921875 32.445312 -69.359375 42.375 -70.953125 C 43.582031 -71.160156 45.03125 -71.265625 46.71875 -71.265625 Z M 46.71875 -71.265625 "/></g></g></g><g fill="#44312b" fill-opacity="1"><g transform="translate(281.893188, 138.290881)"><g><path d="M 24.640625 -42.078125 C 27.285156 -42.878906 28.679688 -43.128906 28.828125 -42.828125 C 28.984375 -42.523438 29.0625 -41.945312 29.0625 -41.09375 C 29.0625 -40.238281 26.925781 -39.207031 22.65625 -38 C 24.550781 -33.820312 25.5 -31.109375 25.5 -29.859375 C 25.5 -28.609375 25.5 -27.835938 25.5 -27.546875 C 25.5 -27.265625 24.941406 -25.296875 23.828125 -21.640625 C 22.710938 -17.984375 20.992188 -15.359375 18.671875 -13.765625 C 16.359375 -12.171875 14.273438 -11.175781 12.421875 -10.78125 C 10.578125 -10.394531 9.398438 -10.203125 8.890625 -10.203125 C 8.378906 -10.203125 7.382812 -10.203125 5.90625 -10.203125 C 4.4375 -10.203125 3.144531 -11.003906 2.03125 -12.609375 C 0.914062 -14.222656 0.238281 -16.195312 0 -18.53125 C -0.238281 -20.863281 0.0820312 -24.113281 0.96875 -28.28125 C 1.851562 -32.445312 3.332031 -35.566406 5.40625 -37.640625 C 7.488281 -39.710938 8.570312 -40.75 8.65625 -40.75 C 8.75 -40.75 9.523438 -40.882812 10.984375 -41.15625 C 12.441406 -41.425781 14.421875 -41.445312 16.921875 -41.21875 C 19.421875 -41 21.992188 -41.285156 24.640625 -42.078125 Z M 8.71875 -22.015625 C 8.71875 -19.367188 8.71875 -17.707031 8.71875 -17.03125 C 8.71875 -16.351562 9.210938 -15.832031 10.203125 -15.46875 C 11.191406 -15.113281 12.347656 -15.363281 13.671875 -16.21875 C 14.992188 -17.082031 16.078125 -18.566406 16.921875 -20.671875 C 17.765625 -22.773438 18.1875 -24.640625 18.1875 -26.265625 C 18.1875 -27.890625 18.1875 -28.769531 18.1875 -28.90625 C 18.1875 -29.039062 18.132812 -30.226562 18.03125 -32.46875 C 17.925781 -34.71875 17.347656 -36.140625 16.296875 -36.734375 L 15.296875 -36.734375 C 13.316406 -36.734375 11.960938 -35.9375 11.234375 -34.34375 C 10.515625 -32.75 9.914062 -30.957031 9.4375 -28.96875 C 8.957031 -26.988281 8.71875 -24.671875 8.71875 -22.015625 Z M 8.71875 -22.015625 "/></g></g></g><g fill="#44312b" fill-opacity="1"><g transform="translate(309.872696, 138.290881)"><g><path d="M 38.046875 -75.46875 C 41.660156 -75.46875 44.25 -74.234375 45.8125 -71.765625 C 45.238281 -71.460938 44.785156 -71.3125 44.453125 -71.3125 C 43.523438 -71.3125 42.289062 -71.628906 40.75 -72.265625 C 37.382812 -72.265625 33.429688 -69.960938 28.890625 -65.359375 C 24.671875 -59.785156 19.460938 -48.171875 13.265625 -30.515625 C 13.265625 -30.328125 12.960938 -29.410156 12.359375 -27.765625 C 16.785156 -26.921875 20.519531 -26.921875 23.5625 -27.765625 L 24.921875 -28.703125 L 25.359375 -27.765625 L 25.359375 -24.140625 C 25.359375 -23.515625 25.046875 -23.203125 24.421875 -23.203125 C 21.140625 -22.328125 16.820312 -22.328125 11.46875 -23.203125 C 6.082031 -1.441406 3.328125 14.757812 3.203125 25.40625 C 2.390625 30.519531 1.320312 33.425781 0 34.125 L -2.296875 34.125 C -2.960938 34.125 -3.566406 32.738281 -4.109375 29.96875 C -4.679688 24.757812 -4.816406 17.757812 -4.515625 8.96875 C -4.210938 0.1875 -2.101562 -11.769531 1.8125 -26.90625 L -4.515625 -30.234375 C -6.078125 -33.210938 -4.117188 -33.472656 1.359375 -31.015625 L 2.796875 -30.0625 C 11.460938 -60.332031 23.210938 -75.46875 38.046875 -75.46875 Z M 38.046875 -75.46875 "/></g></g></g><g fill="#44312b" fill-opacity="1"><g transform="translate(332.978354, 138.290881)"><g><path d="M 38.046875 -75.46875 C 41.660156 -75.46875 44.25 -74.234375 45.8125 -71.765625 C 45.238281 -71.460938 44.785156 -71.3125 44.453125 -71.3125 C 43.523438 -71.3125 42.289062 -71.628906 40.75 -72.265625 C 37.382812 -72.265625 33.429688 -69.960938 28.890625 -65.359375 C 24.671875 -59.785156 19.460938 -48.171875 13.265625 -30.515625 C 13.265625 -30.328125 12.960938 -29.410156 12.359375 -27.765625 C 16.785156 -26.921875 20.519531 -26.921875 23.5625 -27.765625 L 24.921875 -28.703125 L 25.359375 -27.765625 L 25.359375 -24.140625 C 25.359375 -23.515625 25.046875 -23.203125 24.421875 -23.203125 C 21.140625 -22.328125 16.820312 -22.328125 11.46875 -23.203125 C 6.082031 -1.441406 3.328125 14.757812 3.203125 25.40625 C 2.390625 30.519531 1.320312 33.425781 0 34.125 L -2.296875 34.125 C -2.960938 34.125 -3.566406 32.738281 -4.109375 29.96875 C -4.679688 24.757812 -4.816406 17.757812 -4.515625 8.96875 C -4.210938 0.1875 -2.101562 -11.769531 1.8125 -26.90625 L -4.515625 -30.234375 C -6.078125 -33.210938 -4.117188 -33.472656 1.359375 -31.015625 L 2.796875 -30.0625 C 11.460938 -60.332031 23.210938 -75.46875 38.046875 -75.46875 Z M 38.046875 -75.46875 "/></g></g></g><g fill="#44312b" fill-opacity="1"><g transform="translate(356.084013, 138.290881)"><g><path d="M 15.796875 -40.34375 L 22.203125 -40.34375 C 24.492188 -39.113281 25.640625 -38.195312 25.640625 -37.59375 L 25.640625 -35.390625 C 24.671875 -30.003906 19.40625 -25.320312 9.84375 -21.34375 L 9.4375 -21.34375 L 9.4375 -19.546875 C 11.03125 -17.140625 12.878906 -15.9375 14.984375 -15.9375 L 15.390625 -15.9375 C 18.609375 -15.78125 23.109375 -17.796875 28.890625 -21.984375 L 29.25 -21.03125 L 29.25 -20.125 C 23.832031 -14.625 18.640625 -11.875 13.671875 -11.875 C 5.429688 -13.164062 1.3125 -16.925781 1.3125 -23.15625 C 2.726562 -29.53125 5.164062 -34.054688 8.625 -36.734375 C 11.90625 -39.140625 14.296875 -40.34375 15.796875 -40.34375 Z M 9.4375 -26.359375 L 9.4375 -25.859375 C 14.15625 -27.179688 17.71875 -29.738281 20.125 -33.53125 L 20.484375 -34.484375 L 20.484375 -34.890625 L 20.125 -35.84375 C 13 -33.550781 9.4375 -30.390625 9.4375 -26.359375 Z M 9.4375 -26.359375 "/></g></g></g><g fill="#44312b" fill-opacity="1"><g transform="translate(384.33429, 138.290881)"><g><path d="M 15.796875 -40.34375 L 22.203125 -40.34375 C 24.492188 -39.113281 25.640625 -38.195312 25.640625 -37.59375 L 25.640625 -35.390625 C 24.671875 -30.003906 19.40625 -25.320312 9.84375 -21.34375 L 9.4375 -21.34375 L 9.4375 -19.546875 C 11.03125 -17.140625 12.878906 -15.9375 14.984375 -15.9375 L 15.390625 -15.9375 C 18.609375 -15.78125 23.109375 -17.796875 28.890625 -21.984375 L 29.25 -21.03125 L 29.25 -20.125 C 23.832031 -14.625 18.640625 -11.875 13.671875 -11.875 C 5.429688 -13.164062 1.3125 -16.925781 1.3125 -23.15625 C 2.726562 -29.53125 5.164062 -34.054688 8.625 -36.734375 C 11.90625 -39.140625 14.296875 -40.34375 15.796875 -40.34375 Z M 9.4375 -26.359375 L 9.4375 -25.859375 C 14.15625 -27.179688 17.71875 -29.738281 20.125 -33.53125 L 20.484375 -34.484375 L 20.484375 -34.890625 L 20.125 -35.84375 C 13 -33.550781 9.4375 -30.390625 9.4375 -26.359375 Z M 9.4375 -26.359375 "/></g></g></g><g fill="#44312b" fill-opacity="1"><g transform="translate(221.060324, 230.012186)"><g><path d="M 20.625 -28.53125 C 20.238281 -28.40625 19.910156 -28.285156 19.640625 -28.171875 C 19.515625 -19.441406 17.195312 -8.632812 12.6875 4.25 C 13.375 4.25 13.71875 4.320312 13.71875 4.46875 C 15.820312 4.46875 19.085938 3.625 23.515625 1.9375 C 25.347656 1.695312 29.671875 -0.316406 36.484375 -4.109375 C 43.304688 -7.898438 46.71875 -12.203125 46.71875 -17.015625 L 46.71875 -19.546875 C 46.71875 -20.359375 45.738281 -21.515625 43.78125 -23.015625 C 41.789062 -24.253906 39.863281 -25.007812 38 -25.28125 C 29.84375 -27.144531 24.050781 -28.226562 20.625 -28.53125 Z M 21.171875 -33.890625 C 24.085938 -33.867188 26.660156 -33.734375 28.890625 -33.484375 C 30.304688 -33.785156 32.082031 -34.582031 34.21875 -35.875 C 35.570312 -36.71875 36.9375 -37.816406 38.3125 -39.171875 C 45.988281 -44.585938 49.828125 -49.882812 49.828125 -55.0625 C 49.191406 -58.007812 47.6875 -60.117188 45.3125 -61.390625 C 43.332031 -62.015625 41.632812 -62.476562 40.21875 -62.78125 C 32.457031 -61.582031 27.640625 -60.679688 25.765625 -60.078125 C 25.765625 -55.140625 24.234375 -46.410156 21.171875 -33.890625 Z M 1.265625 1.671875 L 1.265625 1.40625 C 6.710938 -20.625 11.253906 -37.851562 14.890625 -50.28125 L 16.703125 -58 L 15.578125 -58 C 10.878906 -56.945312 8.003906 -56.421875 6.953125 -56.421875 C 3.546875 -55.992188 1.425781 -55.78125 0.59375 -55.78125 C -2.8125 -56.300781 -5.285156 -57.222656 -6.828125 -58.546875 C -8.378906 -59.867188 -9.273438 -61.046875 -9.515625 -62.078125 C -9.765625 -63.117188 -8.613281 -64.222656 -6.0625 -65.390625 C -3.519531 -66.566406 1.882812 -68.269531 10.15625 -70.5 C 15.144531 -71.25 19.765625 -71.625 24.015625 -71.625 L 26.671875 -71.625 C 34.191406 -71.625 39.351562 -70.875 42.15625 -69.375 C 46.851562 -68.226562 51.53125 -64.675781 56.1875 -58.71875 C 57.25 -55.800781 57.78125 -53.816406 57.78125 -52.765625 C 57.78125 -50.265625 56.425781 -46.878906 53.71875 -42.609375 C 48.71875 -38.117188 43.34375 -34.929688 37.59375 -33.046875 L 35.609375 -32.453125 C 36.515625 -32.242188 37.3125 -31.972656 38 -31.640625 C 43.507812 -30.492188 48.972656 -26.925781 54.390625 -20.9375 C 55.585938 -18.050781 56.1875 -16.082031 56.1875 -15.03125 C 55.894531 -11.507812 53.585938 -7.816406 49.265625 -3.953125 C 44.941406 -0.0859375 36.175781 3.816406 22.96875 7.765625 C 17.882812 9.234375 13.835938 10.101562 10.828125 10.375 C 4.421875 10.082031 1.234375 7.179688 1.265625 1.671875 Z M 1.265625 1.671875 "/></g></g></g><g fill="#44312b" fill-opacity="1"><g transform="translate(278.463443, 230.012186)"><g><path d="M 7.21875 -44.046875 C 11.375 -42.117188 13.453125 -39.625 13.453125 -36.5625 L 13.453125 -32.859375 C 17.597656 -37.285156 22.96875 -39.5 29.5625 -39.5 C 33.957031 -39.5 37.820312 -37.691406 41.15625 -34.078125 C 41.695312 -32.660156 41.15625 -31.96875 39.53125 -32 C 39.320312 -32 38.5 -32.148438 37.0625 -32.453125 C 26.800781 -35.191406 18.988281 -30.078125 13.625 -17.109375 C 10.738281 -7.234375 8.738281 -0.175781 7.625 4.0625 L 6.765625 4.46875 L 5.953125 4.46875 C -0.597656 2.90625 -3.078125 -2.222656 -1.484375 -10.921875 C 2.390625 -19.460938 5.140625 -27.046875 6.765625 -33.671875 C 7.460938 -34.453125 8.019531 -36.242188 8.4375 -39.046875 C 6.9375 -40.847656 4.851562 -41.476562 2.1875 -40.9375 C -0.476562 -40.394531 -1.6875 -40.707031 -1.4375 -41.875 C -1.195312 -43.050781 0.03125 -43.640625 2.25 -43.640625 C 4.175781 -43.910156 5.832031 -44.046875 7.21875 -44.046875 Z M 7.21875 -44.046875 "/></g></g></g><g fill="#44312b" fill-opacity="1"><g transform="translate(320.793729, 230.012186)"><g><path d="M 15.796875 -40.34375 L 22.203125 -40.34375 C 24.492188 -39.113281 25.640625 -38.195312 25.640625 -37.59375 L 25.640625 -35.390625 C 24.671875 -30.003906 19.40625 -25.320312 9.84375 -21.34375 L 9.4375 -21.34375 L 9.4375 -19.546875 C 11.03125 -17.140625 12.878906 -15.9375 14.984375 -15.9375 L 15.390625 -15.9375 C 18.609375 -15.78125 23.109375 -17.796875 28.890625 -21.984375 L 29.25 -21.03125 L 29.25 -20.125 C 23.832031 -14.625 18.640625 -11.875 13.671875 -11.875 C 5.429688 -13.164062 1.3125 -16.925781 1.3125 -23.15625 C 2.726562 -29.53125 5.164062 -34.054688 8.625 -36.734375 C 11.90625 -39.140625 14.296875 -40.34375 15.796875 -40.34375 Z M 9.4375 -26.359375 L 9.4375 -25.859375 C 14.15625 -27.179688 17.71875 -29.738281 20.125 -33.53125 L 20.484375 -34.484375 L 20.484375 -34.890625 L 20.125 -35.84375 C 13 -33.550781 9.4375 -30.390625 9.4375 -26.359375 Z M 9.4375 -26.359375 "/></g></g></g><g fill="#44312b" fill-opacity="1"><g transform="translate(349.044006, 230.012186)"><g><path d="M 22.84375 -40.390625 C 27.226562 -40.878906 29.242188 -37.707031 28.890625 -30.875 C 27.410156 -24.132812 26.671875 -20.007812 26.671875 -18.5 C 26.671875 -16.726562 27.195312 -15.796875 28.25 -15.703125 C 30.144531 -15.703125 34.054688 -17.054688 39.984375 -19.765625 L 40.265625 -19.140625 L 40.265625 -17.5625 C 39.773438 -15.988281 37.578125 -14.40625 33.671875 -12.8125 C 32.378906 -11.757812 30.679688 -11.234375 28.578125 -11.234375 C 25.171875 -11.566406 22.945312 -13.128906 21.90625 -15.921875 C 20.875 -18.722656 20.359375 -20.757812 20.359375 -22.03125 L 20.046875 -22.03125 C 15.078125 -13.15625 10.742188 -8.71875 7.046875 -8.71875 C 6.171875 -8.71875 5.644531 -8.71875 5.46875 -8.71875 C 3.175781 -8.71875 1.175781 -10.757812 -0.53125 -14.84375 C -2.25 -18.9375 -0.0546875 -24.398438 6.046875 -31.234375 C 13.054688 -36.285156 17.085938 -38.8125 18.140625 -38.8125 C 21.054688 -39.863281 22.625 -40.390625 22.84375 -40.390625 Z M 4.203125 -15.078125 L 5.09375 -14.4375 C 10.0625 -16.96875 13.582031 -20.035156 15.65625 -23.640625 C 17.738281 -27.253906 18.78125 -29.363281 18.78125 -29.96875 L 18.78125 -30.875 L 18.421875 -30.875 C 12.816406 -29.15625 9.046875 -26.21875 7.109375 -22.0625 C 5.171875 -17.914062 4.203125 -15.585938 4.203125 -15.078125 Z M 4.203125 -15.078125 "/></g></g></g><g fill="#44312b" fill-opacity="1"><g transform="translate(388.982497, 230.012186)"><g><path d="M 18.546875 -69.875 L 18.90625 -69.875 C 21.800781 -69.875 24.117188 -68.003906 25.859375 -64.265625 C 25.859375 -62.191406 22.382812 -49.78125 15.4375 -27.03125 C 15.34375 -26.25 15.238281 -25.363281 15.125 -24.375 L 32.140625 -33.3125 C 38.367188 -35.269531 40.6875 -34.320312 39.09375 -30.46875 C 38.1875 -28 34.601562 -25.347656 28.34375 -22.515625 L 24.109375 -20.40625 C 27.597656 -11.644531 29.925781 -5.265625 31.09375 -1.265625 C 34.132812 5.773438 37.785156 9.648438 42.046875 10.359375 C 46.304688 11.066406 50.421875 10.894531 54.390625 9.84375 C 59.617188 8.789062 60.34375 9.578125 56.5625 12.203125 C 52.789062 14.835938 48.816406 16.15625 44.640625 16.15625 C 37.660156 16.15625 30.242188 12.441406 22.390625 5.015625 L 17.828125 -1.578125 L 12.28125 -10.96875 C 12.28125 -11.894531 11.753906 -13.050781 10.703125 -14.4375 C 8.953125 -12.519531 7.28125 -6.96875 5.6875 2.21875 C 5.539062 3.382812 5.195312 3.96875 4.65625 3.96875 L 3.5625 3.96875 C -2.332031 1.988281 -4.179688 -3.226562 -1.984375 -11.6875 C 4.929688 -35.125 9.945312 -50.679688 13.0625 -58.359375 C 16.175781 -66.035156 18.003906 -69.875 18.546875 -69.875 Z M 18.546875 -69.875 "/></g></g></g></svg>