<svg xmlns="http://www.w3.org/2000/svg" xmlns:xlink="http://www.w3.org/1999/xlink" width="500" zoomAndPan="magnify" viewBox="0 0 375 374.999991" height="500" preserveAspectRatio="xMidYMid meet" version="1.0"><defs><g/></defs><path fill="#dda162" d="M 275.882812 208.507812 C 275.664062 210.515625 272.246094 230.328125 222.460938 232.21875 C 170.015625 234.207031 148.382812 239.300781 135.222656 263.792969 C 123.730469 285.238281 138.65625 308.808594 159.914062 316.6875 L 159.914062 316.707031 C 131.34375 306.742188 110.546875 286.925781 99.433594 268.523438 C 84.921875 244.492188 86.175781 229.769531 87.722656 221.019531 L 87.761719 221.019531 C 89.015625 215.566406 106.90625 206.617188 128.023438 207.09375 L 128.023438 207.054688 C 147.785156 208.445312 172.417969 209.464844 200.832031 209.085938 C 233.574219 208.664062 258.089844 208.722656 275.882812 208.507812 Z M 275.882812 208.507812 " fill-opacity="1" fill-rule="nonzero"/><path fill="#493423" d="M 308.707031 207.09375 C 309.285156 209.859375 309.605469 213.296875 309.582031 217.257812 C 309.503906 235.417969 302.308594 264.347656 279.878906 287.425781 C 252.523438 315.515625 198.605469 323.988281 164.308594 313.523438 C 130.011719 303.101562 131.761719 266.039062 156.097656 251.117188 C 180.472656 236.199219 217.492188 244.414062 249.0625 240.4375 C 280.117188 236.515625 283.976562 209.21875 284.09375 208.367188 C 295.527344 208.128906 303.519531 207.652344 308.628906 206.636719 Z M 308.707031 207.09375 " fill-opacity="1" fill-rule="nonzero"/><path fill="#493423" d="M 342.984375 237.929688 C 352.449219 252.609375 340.757812 278.710938 316.402344 282.949219 C 316.402344 282.949219 336.285156 272.503906 337.019531 254.597656 C 337.777344 236.695312 331.054688 240.175781 325.351562 240.175781 C 319.644531 240.175781 317.140625 239.183594 318.132812 233.710938 C 319.128906 228.238281 333.558594 223.265625 342.984375 237.929688 Z M 342.984375 237.929688 " fill-opacity="1" fill-rule="nonzero"/><path fill="#493423" d="M 336.285156 319.253906 C 341.015625 329.660156 294.035156 359.398438 193.253906 348.179688 L 193.773438 343.144531 C 273.4375 351.898438 320.378906 328.742188 320.378906 321.242188 C 320.378906 312.789062 285.585938 316.765625 285.585938 309.304688 C 285.585938 301.84375 331.3125 308.3125 336.285156 319.253906 Z M 336.285156 319.253906 " fill-opacity="1" fill-rule="nonzero"/><path fill="#493423" d="M 284.09375 208.367188 C 281.53125 208.425781 278.804688 208.464844 275.882812 208.507812 C 258.089844 208.722656 233.574219 208.664062 200.832031 209.085938 C 172.417969 209.464844 147.785156 208.445312 128.023438 207.054688 C 94.542969 204.667969 75.097656 201.125 75.097656 201.125 C 125.535156 201.882812 251.785156 199.394531 281.351562 198.140625 C 310.933594 196.910156 262.226562 184.472656 224.210938 179.757812 C 186.179688 175.023438 147.40625 179.996094 147.40625 179.996094 C 147.40625 179.996094 190.414062 166.070312 248.804688 174.027344 C 307.195312 181.984375 320.875 198.398438 314.910156 204.109375 C 313.777344 205.203125 311.730469 206.019531 308.628906 206.636719 C 303.519531 207.652344 295.527344 208.128906 284.09375 208.367188 Z M 284.09375 208.367188 " fill-opacity="1" fill-rule="nonzero"/><path fill="#493423" d="M 313.421875 217.296875 C 313.421875 217.296875 322.964844 248.574219 291.808594 290.644531 C 266.203125 325.222656 188.660156 348.101562 133.492188 314.777344 C 78.316406 281.457031 68.617188 235.699219 69.613281 219.027344 C 70.605469 202.378906 88.023438 206.855469 88.757812 213.320312 C 88.957031 215.132812 88.320312 217.617188 87.722656 221.019531 C 86.175781 229.769531 84.921875 244.492188 99.433594 268.523438 C 110.546875 286.925781 131.34375 306.742188 159.914062 316.707031 C 183.117188 324.820312 211.425781 326.4375 243.832031 315.515625 C 316.144531 291.160156 313.421875 217.296875 313.421875 217.296875 Z M 313.421875 217.296875 " fill-opacity="1" fill-rule="nonzero"/><path fill="#493423" d="M 193.773438 343.144531 L 193.253906 348.179688 C 188.046875 347.601562 182.714844 346.910156 177.230469 346.109375 C 65.398438 329.699219 22.648438 273.996094 24.640625 261.5625 C 24.640625 261.5625 62.910156 318.261719 161.824219 338.152344 C 172.976562 340.402344 183.632812 342.03125 193.773438 343.144531 Z M 193.773438 343.144531 " fill-opacity="1" fill-rule="nonzero"/><path fill="#493423" d="M 210.78125 194.421875 C 210.78125 194.421875 190.902344 191.933594 186.675781 173.285156 C 182.449219 154.632812 202.582031 134.738281 206.308594 107.882812 C 210.035156 81.027344 187.421875 57.152344 162.320312 54.417969 C 134.246094 51.359375 130.757812 56.160156 128.769531 61.132812 C 126.78125 66.105469 131.253906 68.097656 128.023438 72.820312 C 124.792969 77.546875 111.871094 78.042969 111.621094 68.84375 C 111.371094 59.640625 120.671875 43.984375 155.855469 47.457031 C 191.148438 50.9375 211.921875 72.808594 213.515625 93.707031 C 215.503906 119.820312 191.347656 149.648438 190.902344 165.824219 C 190.402344 183.726562 210.78125 194.421875 210.78125 194.421875 Z M 210.78125 194.421875 " fill-opacity="1" fill-rule="nonzero"/><path fill="#dda162" d="M 208.542969 168.558594 C 208.542969 168.558594 202.082031 159.359375 211.277344 143.191406 C 220.472656 127.03125 242.09375 106.886719 228.175781 85.253906 C 214.261719 63.617188 196.367188 60.140625 197.363281 43.476562 C 198.355469 26.816406 215.75 15.871094 224.945312 23.832031 C 234.144531 31.789062 219.230469 43.476562 210.78125 33.53125 C 210.78125 33.53125 201.089844 42.484375 209.042969 54.667969 C 216.992188 66.855469 237.796875 79.773438 239.113281 98.929688 C 240.851562 124.292969 207.550781 142.199219 208.542969 168.558594 Z M 208.542969 168.558594 " fill-opacity="1" fill-rule="nonzero"/><g fill="#ffffff" fill-opacity="1"><g transform="translate(110.802272, 355.406489)"><g><path d="M 4.914062 0 L 6.03125 0 C 5.925781 -0.765625 5.902344 -1.234375 5.902344 -1.753906 L 5.902344 -4.339844 C 5.902344 -4.640625 5.886719 -4.976562 5.863281 -5.25 C 5.746094 -6.382812 5.054688 -7.070312 3.417969 -7.070312 C 1.898438 -7.070312 0.871094 -6.226562 0.765625 -4.757812 L 1.9375 -4.757812 C 2.015625 -5.707031 2.484375 -6.210938 3.417969 -6.210938 C 4.339844 -6.210938 4.707031 -5.796875 4.757812 -5.160156 C 4.78125 -4.898438 4.78125 -4.628906 4.78125 -4.328125 L 4.78125 -4.144531 L 4.339844 -4.144531 C 1.636719 -4.144531 0.46875 -3.339844 0.46875 -1.78125 C 0.46875 -0.507812 1.441406 0.183594 2.691406 0.183594 C 3.351562 0.183594 3.953125 0.078125 4.417969 -0.246094 L 4.796875 -0.988281 Z M 3.066406 -0.675781 C 2.222656 -0.675781 1.691406 -1.039062 1.691406 -1.871094 C 1.691406 -3.054688 2.886719 -3.457031 4.78125 -3.3125 L 4.78125 -2.613281 C 4.78125 -1.363281 4.105469 -0.675781 3.066406 -0.675781 Z M 3.066406 -0.675781 "/></g></g></g><g fill="#ffffff" fill-opacity="1"><g transform="translate(117.703162, 355.406489)"><g><path d="M 2.027344 -9.554688 L 0.910156 -9.554688 L 0.910156 -1.9375 C 0.910156 -1.558594 0.910156 -1.261719 0.921875 -1.027344 C 0.960938 -0.15625 1.441406 0.0507812 2.09375 0.0507812 C 2.351562 0.0507812 2.636719 0.0390625 2.886719 0 L 2.886719 -0.804688 C 2.273438 -0.742188 2.066406 -0.882812 2.039062 -1.324219 C 2.027344 -1.546875 2.027344 -1.769531 2.027344 -1.976562 Z M 2.027344 -9.554688 "/></g></g></g><g fill="#ffffff" fill-opacity="1"><g transform="translate(120.913184, 355.406489)"><g><path d="M 10.125 -6.890625 L 8.929688 -6.890625 L 7.332031 -1.105469 L 5.796875 -6.890625 L 4.40625 -6.890625 L 2.898438 -1.066406 L 1.300781 -6.890625 L 0.0117188 -6.890625 L 2.210938 0 L 3.535156 0 L 5.070312 -5.796875 L 6.601562 0 L 7.929688 0 Z M 10.125 -6.890625 "/></g></g></g><g fill="#ffffff" fill-opacity="1"><g transform="translate(131.115053, 355.406489)"><g><path d="M 4.914062 0 L 6.03125 0 C 5.925781 -0.765625 5.902344 -1.234375 5.902344 -1.753906 L 5.902344 -4.339844 C 5.902344 -4.640625 5.886719 -4.976562 5.863281 -5.25 C 5.746094 -6.382812 5.054688 -7.070312 3.417969 -7.070312 C 1.898438 -7.070312 0.871094 -6.226562 0.765625 -4.757812 L 1.9375 -4.757812 C 2.015625 -5.707031 2.484375 -6.210938 3.417969 -6.210938 C 4.339844 -6.210938 4.707031 -5.796875 4.757812 -5.160156 C 4.78125 -4.898438 4.78125 -4.628906 4.78125 -4.328125 L 4.78125 -4.144531 L 4.339844 -4.144531 C 1.636719 -4.144531 0.46875 -3.339844 0.46875 -1.78125 C 0.46875 -0.507812 1.441406 0.183594 2.691406 0.183594 C 3.351562 0.183594 3.953125 0.078125 4.417969 -0.246094 L 4.796875 -0.988281 Z M 3.066406 -0.675781 C 2.222656 -0.675781 1.691406 -1.039062 1.691406 -1.871094 C 1.691406 -3.054688 2.886719 -3.457031 4.78125 -3.3125 L 4.78125 -2.613281 C 4.78125 -1.363281 4.105469 -0.675781 3.066406 -0.675781 Z M 3.066406 -0.675781 "/></g></g></g><g fill="#ffffff" fill-opacity="1"><g transform="translate(138.015943, 355.406489)"><g><path d="M 6.589844 -6.890625 L 5.367188 -6.890625 L 3.328125 -0.832031 L 1.273438 -6.890625 L 0.0117188 -6.890625 L 2.753906 0.351562 L 2.664062 0.597656 C 2.3125 1.507812 1.859375 1.808594 1.167969 1.808594 C 1.054688 1.808594 0.9375 1.808594 0.765625 1.792969 L 0.765625 2.703125 C 0.9375 2.730469 1.089844 2.730469 1.339844 2.730469 C 2.457031 2.730469 3.199219 2.039062 3.757812 0.585938 Z M 6.589844 -6.890625 "/></g></g></g><g fill="#ffffff" fill-opacity="1"><g transform="translate(144.682904, 355.406489)"><g><path d="M 2.964844 -7.070312 C 1.546875 -7.070312 0.585938 -6.316406 0.585938 -5.054688 C 0.585938 -3.847656 1.574219 -3.339844 2.808594 -3.003906 C 3.964844 -2.691406 4.433594 -2.339844 4.433594 -1.675781 C 4.433594 -1.015625 3.835938 -0.675781 3.09375 -0.675781 C 2.300781 -0.675781 1.664062 -1.027344 1.480469 -2.027344 L 0.3125 -2.027344 C 0.519531 -0.46875 1.597656 0.183594 3.015625 0.183594 C 4.472656 0.183594 5.574219 -0.46875 5.574219 -1.769531 C 5.574219 -2.9375 4.820312 -3.5625 3.238281 -3.976562 C 2.300781 -4.222656 1.730469 -4.496094 1.730469 -5.1875 C 1.730469 -5.785156 2.09375 -6.210938 2.871094 -6.210938 C 3.679688 -6.210938 4.171875 -5.730469 4.328125 -4.925781 L 5.496094 -4.925781 C 5.355469 -6.1875 4.511719 -7.070312 2.964844 -7.070312 Z M 2.964844 -7.070312 "/></g></g></g><g fill="#ffffff" fill-opacity="1"><g transform="translate(150.648079, 355.406489)"><g/></g></g><g fill="#ffffff" fill-opacity="1"><g transform="translate(153.455223, 355.406489)"><g><path d="M 5.238281 0 L 6.757812 0 L 3.507812 -3.640625 L 6.71875 -6.890625 L 5.289062 -6.890625 L 2.078125 -3.417969 L 2.078125 -9.554688 L 0.960938 -9.554688 L 0.960938 0 L 2.078125 0 L 2.078125 -2.195312 L 2.730469 -2.910156 Z M 5.238281 0 "/></g></g></g><g fill="#ffffff" fill-opacity="1"><g transform="translate(160.239143, 355.406489)"><g><path d="M 6.617188 -3.640625 C 6.617188 -5.652344 5.5625 -7.070312 3.664062 -7.070312 C 1.78125 -7.070312 0.390625 -5.652344 0.390625 -3.417969 C 0.390625 -0.988281 1.730469 0.183594 3.523438 0.183594 C 4.9375 0.183594 6.25 -0.558594 6.523438 -2.222656 L 5.355469 -2.222656 C 5.199219 -1.234375 4.472656 -0.675781 3.574219 -0.675781 C 2.558594 -0.675781 1.703125 -1.285156 1.597656 -3.105469 L 6.589844 -3.105469 C 6.617188 -3.351562 6.617188 -3.535156 6.617188 -3.640625 Z M 3.640625 -6.210938 C 4.769531 -6.210938 5.382812 -5.394531 5.484375 -3.964844 L 1.613281 -3.964844 C 1.742188 -5.433594 2.546875 -6.210938 3.640625 -6.210938 Z M 3.640625 -6.210938 "/></g></g></g><g fill="#ffffff" fill-opacity="1"><g transform="translate(167.373962, 355.406489)"><g><path d="M 6.617188 -3.640625 C 6.617188 -5.652344 5.5625 -7.070312 3.664062 -7.070312 C 1.78125 -7.070312 0.390625 -5.652344 0.390625 -3.417969 C 0.390625 -0.988281 1.730469 0.183594 3.523438 0.183594 C 4.9375 0.183594 6.25 -0.558594 6.523438 -2.222656 L 5.355469 -2.222656 C 5.199219 -1.234375 4.472656 -0.675781 3.574219 -0.675781 C 2.558594 -0.675781 1.703125 -1.285156 1.597656 -3.105469 L 6.589844 -3.105469 C 6.617188 -3.351562 6.617188 -3.535156 6.617188 -3.640625 Z M 3.640625 -6.210938 C 4.769531 -6.210938 5.382812 -5.394531 5.484375 -3.964844 L 1.613281 -3.964844 C 1.742188 -5.433594 2.546875 -6.210938 3.640625 -6.210938 Z M 3.640625 -6.210938 "/></g></g></g><g fill="#ffffff" fill-opacity="1"><g transform="translate(174.50878, 355.406489)"><g><path d="M 4.417969 -7.070312 C 3.71875 -7.070312 2.988281 -6.851562 2.597656 -6.523438 L 2.078125 -5.785156 L 2.078125 -6.890625 L 0.960938 -6.890625 L 0.960938 2.546875 L 2.078125 2.546875 L 2.078125 -0.949219 L 2.535156 -0.273438 C 2.886719 0.0117188 3.613281 0.183594 4.183594 0.183594 C 5.964844 0.183594 7.550781 -1 7.550781 -3.546875 C 7.550781 -5.5625 6.433594 -7.070312 4.417969 -7.070312 Z M 4.183594 -0.675781 C 3.199219 -0.675781 2.078125 -1.351562 2.078125 -3.132812 L 2.078125 -3.507812 C 2.078125 -5.484375 3.105469 -6.210938 4.25 -6.210938 C 5.628906 -6.210938 6.328125 -4.976562 6.328125 -3.417969 C 6.328125 -1.613281 5.394531 -0.675781 4.183594 -0.675781 Z M 4.183594 -0.675781 "/></g></g></g><g fill="#ffffff" fill-opacity="1"><g transform="translate(182.449343, 355.406489)"><g><path d="M 1.519531 -9.148438 C 1.117188 -9.148438 0.804688 -8.839844 0.804688 -8.433594 C 0.804688 -8.03125 1.117188 -7.71875 1.519531 -7.71875 C 1.921875 -7.71875 2.234375 -8.03125 2.234375 -8.433594 C 2.234375 -8.839844 1.921875 -9.148438 1.519531 -9.148438 Z M 2.078125 0 L 2.078125 -6.890625 L 0.960938 -6.890625 L 0.960938 0 Z M 2.078125 0 "/></g></g></g><g fill="#ffffff" fill-opacity="1"><g transform="translate(185.542394, 355.406489)"><g><path d="M 6.757812 -5.054688 C 6.65625 -6.265625 5.808594 -7.070312 4.300781 -7.070312 C 3.601562 -7.070312 3.09375 -6.953125 2.507812 -6.5 L 2.078125 -5.707031 L 2.078125 -6.890625 L 0.960938 -6.890625 L 0.960938 0 L 2.078125 0 L 2.078125 -3.027344 C 2.078125 -5.382812 2.988281 -6.1875 4.066406 -6.1875 C 5.132812 -6.1875 5.574219 -5.589844 5.640625 -4.78125 C 5.667969 -4.433594 5.667969 -4.144531 5.667969 -3.796875 L 5.667969 0 L 6.785156 0 L 6.785156 -3.875 C 6.785156 -4.433594 6.785156 -4.707031 6.757812 -5.054688 Z M 6.757812 -5.054688 "/></g></g></g><g fill="#ffffff" fill-opacity="1"><g transform="translate(193.249028, 355.406489)"><g><path d="M 6.980469 -6.890625 L 5.863281 -6.890625 L 5.863281 -5.941406 L 5.40625 -6.617188 C 5.054688 -6.902344 4.328125 -7.070312 3.757812 -7.070312 C 1.976562 -7.070312 0.390625 -5.886719 0.390625 -3.339844 C 0.390625 -1.324219 1.507812 0.183594 3.523438 0.183594 C 4.222656 0.183594 4.953125 -0.0390625 5.34375 -0.363281 L 5.863281 -1.105469 L 5.863281 -0.988281 C 5.863281 -0.78125 5.863281 -0.558594 5.847656 -0.234375 C 5.796875 1.089844 5.054688 1.871094 3.691406 1.871094 C 2.507812 1.871094 1.832031 1.285156 1.742188 0.441406 L 1.730469 0.324219 L 0.597656 0.324219 L 0.609375 0.453125 C 0.753906 1.910156 1.730469 2.730469 3.691406 2.730469 C 5.679688 2.730469 6.902344 1.664062 6.964844 -0.351562 C 6.980469 -0.726562 6.980469 -1.261719 6.980469 -1.691406 Z M 3.691406 -0.675781 C 2.3125 -0.675781 1.613281 -1.910156 1.613281 -3.46875 C 1.613281 -5.277344 2.546875 -6.210938 3.757812 -6.210938 C 4.742188 -6.210938 5.863281 -5.535156 5.863281 -3.757812 L 5.863281 -3.378906 C 5.863281 -1.402344 4.835938 -0.675781 3.691406 -0.675781 Z M 3.691406 -0.675781 "/></g></g></g><g fill="#ffffff" fill-opacity="1"><g transform="translate(201.241582, 355.406489)"><g/></g></g><g fill="#ffffff" fill-opacity="1"><g transform="translate(204.048726, 355.406489)"><g><path d="M 6.589844 -6.890625 L 5.367188 -6.890625 L 3.328125 -0.832031 L 1.273438 -6.890625 L 0.0117188 -6.890625 L 2.753906 0.351562 L 2.664062 0.597656 C 2.3125 1.507812 1.859375 1.808594 1.167969 1.808594 C 1.054688 1.808594 0.9375 1.808594 0.765625 1.792969 L 0.765625 2.703125 C 0.9375 2.730469 1.089844 2.730469 1.339844 2.730469 C 2.457031 2.730469 3.199219 2.039062 3.757812 0.585938 Z M 6.589844 -6.890625 "/></g></g></g><g fill="#ffffff" fill-opacity="1"><g transform="translate(210.715687, 355.406489)"><g><path d="M 3.808594 -7.070312 C 1.46875 -7.070312 0.390625 -5.394531 0.390625 -3.445312 C 0.390625 -1.507812 1.46875 0.183594 3.808594 0.183594 C 6.148438 0.183594 7.226562 -1.507812 7.226562 -3.445312 C 7.226562 -5.394531 6.148438 -7.070312 3.808594 -7.070312 Z M 3.808594 -0.675781 C 2.417969 -0.675781 1.613281 -1.832031 1.613281 -3.445312 C 1.613281 -5.070312 2.417969 -6.210938 3.808594 -6.210938 C 5.199219 -6.210938 6.003906 -5.070312 6.003906 -3.445312 C 6.003906 -1.832031 5.199219 -0.675781 3.808594 -0.675781 Z M 3.808594 -0.675781 "/></g></g></g><g fill="#ffffff" fill-opacity="1"><g transform="translate(218.331352, 355.406489)"><g><path d="M 6.679688 -6.890625 L 5.5625 -6.890625 L 5.5625 -3.859375 C 5.5625 -1.507812 4.707031 -0.703125 3.625 -0.703125 C 2.691406 -0.703125 2.132812 -1.234375 2.027344 -2.015625 C 1.988281 -2.367188 1.976562 -2.742188 1.976562 -2.964844 L 1.976562 -6.890625 L 0.859375 -6.890625 L 0.859375 -2.753906 C 0.859375 -2.195312 0.871094 -1.921875 0.921875 -1.574219 C 1.078125 -0.625 1.910156 0.183594 3.339844 0.183594 C 4.042969 0.183594 4.550781 0.0664062 5.132812 -0.363281 L 5.5625 -1.167969 L 5.5625 0 L 6.679688 0 Z M 6.679688 -6.890625 "/></g></g></g><g fill="#ffffff" fill-opacity="1"><g transform="translate(226.024997, 355.406489)"><g/></g></g><g fill="#ffffff" fill-opacity="1"><g transform="translate(228.832141, 355.406489)"><g><path d="M 10.125 -6.890625 L 8.929688 -6.890625 L 7.332031 -1.105469 L 5.796875 -6.890625 L 4.40625 -6.890625 L 2.898438 -1.066406 L 1.300781 -6.890625 L 0.0117188 -6.890625 L 2.210938 0 L 3.535156 0 L 5.070312 -5.796875 L 6.601562 0 L 7.929688 0 Z M 10.125 -6.890625 "/></g></g></g><g fill="#ffffff" fill-opacity="1"><g transform="translate(239.03401, 355.406489)"><g><path d="M 4.914062 0 L 6.03125 0 C 5.925781 -0.765625 5.902344 -1.234375 5.902344 -1.753906 L 5.902344 -4.339844 C 5.902344 -4.640625 5.886719 -4.976562 5.863281 -5.25 C 5.746094 -6.382812 5.054688 -7.070312 3.417969 -7.070312 C 1.898438 -7.070312 0.871094 -6.226562 0.765625 -4.757812 L 1.9375 -4.757812 C 2.015625 -5.707031 2.484375 -6.210938 3.417969 -6.210938 C 4.339844 -6.210938 4.707031 -5.796875 4.757812 -5.160156 C 4.78125 -4.898438 4.78125 -4.628906 4.78125 -4.328125 L 4.78125 -4.144531 L 4.339844 -4.144531 C 1.636719 -4.144531 0.46875 -3.339844 0.46875 -1.78125 C 0.46875 -0.507812 1.441406 0.183594 2.691406 0.183594 C 3.351562 0.183594 3.953125 0.078125 4.417969 -0.246094 L 4.796875 -0.988281 Z M 3.066406 -0.675781 C 2.222656 -0.675781 1.691406 -1.039062 1.691406 -1.871094 C 1.691406 -3.054688 2.886719 -3.457031 4.78125 -3.3125 L 4.78125 -2.613281 C 4.78125 -1.363281 4.105469 -0.675781 3.066406 -0.675781 Z M 3.066406 -0.675781 "/></g></g></g><g fill="#ffffff" fill-opacity="1"><g transform="translate(245.9349, 355.406489)"><g><path d="M 3.664062 -7.042969 C 3.339844 -7.042969 2.988281 -6.925781 2.703125 -6.734375 L 2.078125 -5.808594 L 2.078125 -6.890625 L 0.960938 -6.890625 L 0.960938 0 L 2.078125 0 L 2.078125 -3.925781 C 2.078125 -5.496094 2.964844 -6.1875 4.132812 -6.109375 L 4.132812 -6.953125 C 4.003906 -7.019531 3.847656 -7.042969 3.664062 -7.042969 Z M 3.664062 -7.042969 "/></g></g></g><g fill="#ffffff" fill-opacity="1"><g transform="translate(250.223585, 355.406489)"><g><path d="M 10.125 -5.394531 C 9.96875 -6.34375 9.265625 -7.070312 8.03125 -7.070312 C 7.421875 -7.070312 6.925781 -6.953125 6.578125 -6.667969 L 5.964844 -5.785156 C 5.707031 -6.539062 5.03125 -7.070312 3.976562 -7.070312 C 3.367188 -7.070312 2.871094 -6.953125 2.523438 -6.667969 L 2.078125 -5.886719 L 2.078125 -6.890625 L 0.960938 -6.890625 L 0.960938 0 L 2.078125 0 L 2.078125 -3.40625 C 2.078125 -5.496094 2.714844 -6.1875 3.585938 -6.1875 C 4.367188 -6.1875 4.859375 -5.808594 4.964844 -5.03125 C 5.003906 -4.679688 5.015625 -4.300781 5.015625 -3.691406 L 5.015625 0 L 6.136719 0 L 6.136719 -3.40625 C 6.136719 -5.496094 6.773438 -6.1875 7.640625 -6.1875 C 8.421875 -6.1875 8.917969 -5.808594 9.019531 -5.03125 C 9.058594 -4.679688 9.070312 -4.300781 9.070312 -3.691406 L 9.070312 0 L 10.191406 0 L 10.191406 -4.210938 C 10.191406 -4.769531 10.175781 -5.042969 10.125 -5.394531 Z M 10.125 -5.394531 "/></g></g></g><g fill="#ffffff" fill-opacity="1"><g transform="translate(261.335179, 355.406489)"><g><path d="M 1.3125 -1.480469 C 0.832031 -1.480469 0.480469 -1.128906 0.480469 -0.648438 C 0.480469 -0.167969 0.832031 0.183594 1.3125 0.183594 C 1.792969 0.183594 2.144531 -0.167969 2.144531 -0.648438 C 2.144531 -1.128906 1.792969 -1.480469 1.3125 -1.480469 Z M 1.3125 -1.480469 "/></g></g></g></svg>