<svg xmlns="http://www.w3.org/2000/svg" xmlns:xlink="http://www.w3.org/1999/xlink" width="500" zoomAndPan="magnify" viewBox="0 0 375 374.999991" height="500" preserveAspectRatio="xMidYMid meet" version="1.0"><path fill="#d7a86e" d="M 284.214844 210.273438 C 283.972656 212.464844 280.234375 234.09375 225.808594 236.160156 C 168.476562 238.332031 144.828125 243.894531 130.4375 270.628906 C 117.875 294.039062 134.195312 319.769531 157.433594 328.375 L 157.433594 328.398438 C 126.199219 317.515625 103.464844 295.882812 91.316406 275.792969 C 75.449219 249.558594 76.820312 233.484375 78.515625 223.929688 L 78.554688 223.929688 C 79.925781 217.980469 99.484375 208.210938 122.570312 208.730469 L 122.570312 208.6875 C 144.175781 210.207031 171.101562 211.316406 202.164062 210.902344 C 237.957031 210.445312 264.757812 210.507812 284.214844 210.273438 Z M 284.214844 210.273438 " fill-opacity="1" fill-rule="nonzero"/><path fill="#2b1511" d="M 320.097656 208.730469 C 320.726562 211.75 321.074219 215.503906 321.054688 219.828125 C 320.964844 239.652344 313.097656 271.234375 288.578125 296.425781 C 258.675781 327.09375 199.730469 336.34375 162.234375 324.921875 C 124.742188 313.539062 126.65625 273.082031 153.261719 256.789062 C 179.90625 240.503906 220.375 249.472656 254.890625 245.128906 C 288.84375 240.851562 293.058594 211.050781 293.1875 210.121094 C 305.683594 209.859375 314.421875 209.339844 320.007812 208.230469 Z M 320.097656 208.730469 " fill-opacity="1" fill-rule="nonzero"/><path fill="#2b1511" d="M 357.566406 242.394531 C 367.914062 258.417969 355.132812 286.914062 328.507812 291.542969 C 328.507812 291.542969 350.242188 280.140625 351.046875 260.589844 C 351.875 241.046875 344.527344 244.847656 338.289062 244.847656 C 332.050781 244.847656 329.3125 243.761719 330.398438 237.789062 C 331.488281 231.816406 347.265625 226.386719 357.566406 242.394531 Z M 357.566406 242.394531 " fill-opacity="1" fill-rule="nonzero"/><path fill="#2b1511" d="M 350.242188 331.175781 C 355.414062 342.539062 304.058594 375 193.882812 362.753906 L 194.449219 357.257812 C 281.539062 366.816406 332.855469 341.535156 332.855469 333.347656 C 332.855469 324.117188 294.820312 328.460938 294.820312 320.316406 C 294.820312 312.167969 344.808594 319.230469 350.242188 331.175781 Z M 350.242188 331.175781 " fill-opacity="1" fill-rule="nonzero"/><path fill="#2b1511" d="M 293.1875 210.121094 C 290.382812 210.183594 287.40625 210.230469 284.214844 210.273438 C 264.757812 210.507812 237.957031 210.445312 202.164062 210.902344 C 171.101562 211.316406 144.175781 210.207031 122.570312 208.6875 C 85.96875 206.082031 64.710938 202.214844 64.710938 202.214844 C 119.851562 203.039062 257.871094 200.324219 290.1875 198.957031 C 322.53125 197.609375 269.28125 184.035156 227.722656 178.890625 C 186.144531 173.71875 143.761719 179.148438 143.761719 179.148438 C 143.761719 179.148438 190.773438 163.945312 254.609375 172.632812 C 318.445312 181.320312 333.398438 199.238281 326.875 205.472656 C 325.636719 206.667969 323.402344 207.558594 320.007812 208.230469 C 314.421875 209.339844 305.683594 209.859375 293.1875 210.121094 Z M 293.1875 210.121094 " fill-opacity="1" fill-rule="nonzero"/><path fill="#2b1511" d="M 325.25 219.871094 C 325.25 219.871094 335.679688 254.011719 301.621094 299.945312 C 273.628906 337.691406 188.859375 362.667969 128.546875 326.289062 C 68.230469 289.914062 57.625 239.960938 58.714844 221.757812 C 59.796875 203.582031 78.839844 208.46875 79.644531 215.527344 C 79.859375 217.503906 79.167969 220.21875 78.515625 223.929688 C 76.820312 233.484375 75.449219 249.558594 91.316406 275.792969 C 103.464844 295.882812 126.199219 317.515625 157.433594 328.398438 C 182.796875 337.253906 213.746094 339.019531 249.175781 327.09375 C 328.226562 300.507812 325.25 219.871094 325.25 219.871094 Z M 325.25 219.871094 " fill-opacity="1" fill-rule="nonzero"/><path fill="#2b1511" d="M 194.449219 357.257812 L 193.882812 362.753906 C 188.1875 362.125 182.359375 361.367188 176.363281 360.496094 C 54.105469 342.578125 7.375 281.769531 9.546875 268.191406 C 9.546875 268.191406 51.386719 330.089844 159.519531 351.808594 C 171.714844 354.261719 183.363281 356.042969 194.449219 357.257812 Z M 194.449219 357.257812 " fill-opacity="1" fill-rule="nonzero"/><path fill="#2b1511" d="M 213.042969 194.894531 C 213.042969 194.894531 191.308594 192.179688 186.6875 171.820312 C 182.070312 151.457031 204.074219 129.738281 208.152344 100.421875 C 212.226562 71.101562 187.503906 45.039062 160.0625 42.054688 C 129.371094 38.714844 125.558594 43.953125 123.382812 49.386719 C 121.210938 54.8125 126.101562 56.988281 122.570312 62.144531 C 119.039062 67.300781 104.910156 67.847656 104.636719 57.800781 C 104.367188 47.757812 114.53125 30.664062 152.996094 34.453125 C 191.578125 38.253906 214.289062 62.132812 216.03125 84.949219 C 218.203125 113.453125 191.796875 146.015625 191.308594 163.675781 C 190.761719 183.222656 213.042969 194.894531 213.042969 194.894531 Z M 213.042969 194.894531 " fill-opacity="1" fill-rule="nonzero"/><path fill="#d7a86e" d="M 210.597656 166.660156 C 210.597656 166.660156 203.53125 156.617188 213.582031 138.96875 C 223.636719 121.324219 247.273438 99.335938 232.058594 75.714844 C 216.84375 52.097656 197.28125 48.300781 198.371094 30.109375 C 199.457031 11.921875 218.476562 -0.0273438 228.527344 8.660156 C 238.582031 17.347656 222.28125 30.109375 213.042969 19.253906 C 213.042969 19.253906 202.445312 29.023438 211.140625 42.328125 C 219.832031 55.628906 242.578125 69.734375 244.015625 90.648438 C 245.914062 118.339844 209.507812 137.886719 210.597656 166.660156 Z M 210.597656 166.660156 " fill-opacity="1" fill-rule="nonzero"/></svg>